<mxfile host="65bd71144e">
    <diagram id="CPHlGd6llGqzIn6Fdj6a" name="backend-models-diagram">
        <mxGraphModel dx="1420" dy="943" grid="0" gridSize="10" guides="1" tooltips="1" connect="1" arrows="1" fold="1" page="1" pageScale="1" pageWidth="1169" pageHeight="827" math="0" shadow="0">
            <root>
                <mxCell id="0"/>
                <mxCell id="1" parent="0"/>
                <mxCell id="2" value="&lt;p style=&quot;margin: 4px 0px 0px ; text-align: center ; font-size: 13px&quot;&gt;&lt;span style=&quot;font-size: 13px&quot;&gt;&lt;b&gt;User_Profile&lt;/b&gt;&lt;/span&gt;&lt;/p&gt;&lt;hr style=&quot;font-size: 13px&quot;&gt;&lt;p style=&quot;margin: 0px 0px 0px 4px ; font-size: 13px&quot;&gt;+ user_id: uuid&lt;br style=&quot;font-size: 13px&quot;&gt;+ first_name: String&lt;/p&gt;&lt;p style=&quot;margin: 0px 0px 0px 4px ; font-size: 13px&quot;&gt;+ last_name: String&lt;/p&gt;&lt;p style=&quot;margin: 0px 0px 0px 4px ; font-size: 13px&quot;&gt;&lt;span&gt;+ birthday: Date&lt;/span&gt;&lt;br&gt;&lt;/p&gt;&lt;p style=&quot;margin: 0px 0px 0px 4px ; font-size: 13px&quot;&gt;+ avatar: String&lt;/p&gt;&lt;p style=&quot;margin: 0px 0px 0px 4px ; font-size: 13px&quot;&gt;+ email: String&lt;br&gt;+ password: Hash&lt;/p&gt;&lt;p style=&quot;margin: 0px 0px 0px 4px ; font-size: 13px&quot;&gt;+ telNr: String&lt;br&gt;+ isActive: bool&lt;br&gt;+ role: Array[enum]&lt;/p&gt;&lt;p style=&quot;margin: 0px 0px 0px 4px ; font-size: 13px&quot;&gt;+ occupation: String&lt;/p&gt;&lt;p style=&quot;margin: 0px 0px 0px 4px ; font-size: 13px&quot;&gt;+ company: String&lt;/p&gt;&lt;p style=&quot;margin: 0px 0px 0px 4px ; font-size: 13px&quot;&gt;+ school: String&lt;/p&gt;&lt;p style=&quot;margin: 0px 0px 0px 4px ; font-size: 13px&quot;&gt;+ subject: String&lt;/p&gt;&lt;p style=&quot;margin: 0px 0px 0px 4px ; font-size: 13px&quot;&gt;+ country: String&lt;/p&gt;&lt;hr style=&quot;font-size: 13px&quot;&gt;&lt;p style=&quot;margin: 0px 0px 0px 4px ; font-size: 13px&quot;&gt;&lt;span&gt;+ updateFirstName(): String&lt;/span&gt;&lt;br&gt;&lt;/p&gt;&lt;p style=&quot;margin: 0px 0px 0px 4px ; font-size: 13px&quot;&gt;+ updateLastName(): String&lt;br&gt;+ updateAvatar(): String&lt;br&gt;+ updateEmail: String&lt;br&gt;+ updateTelNr(): String&lt;br&gt;+ updateOccupation(): String&lt;br&gt;+ updateCompany(): String&lt;br&gt;+ updateSchool(): String&lt;br&gt;+ updateSubject(): String&lt;br&gt;+ updateCounty(): String&lt;br&gt;+ deleteProfile(): String&lt;br&gt;+ deleteDeactive(): bool&lt;/p&gt;&lt;p style=&quot;margin: 0px 0px 0px 4px ; font-size: 13px&quot;&gt;+ passwordForgot(): bool&lt;/p&gt;" style="verticalAlign=top;align=left;overflow=fill;fontSize=13;fontFamily=Helvetica;html=1;fontStyle=0;strokeWidth=2;" parent="1" vertex="1">
                    <mxGeometry x="116" y="173" width="201" height="477" as="geometry"/>
                </mxCell>
                <mxCell id="11" value="&lt;p style=&quot;margin: 4px 0px 0px ; text-align: center ; font-size: 13px&quot;&gt;&lt;span style=&quot;font-size: 13px&quot;&gt;&lt;b&gt;Course&lt;/b&gt;&lt;/span&gt;&lt;/p&gt;&lt;hr style=&quot;font-size: 13px&quot;&gt;&lt;p style=&quot;margin: 0px 0px 0px 4px ; font-size: 13px&quot;&gt;+ course_id: uuid&lt;br style=&quot;font-size: 13px&quot;&gt;+ name: String&lt;/p&gt;&lt;p style=&quot;margin: 0px 0px 0px 4px ; font-size: 13px&quot;&gt;+ description: String&lt;/p&gt;&lt;p style=&quot;margin: 0px 0px 0px 4px ; font-size: 13px&quot;&gt;+ dauer: Date (Timestrimp)&lt;/p&gt;&lt;p style=&quot;margin: 0px 0px 0px 4px ; font-size: 13px&quot;&gt;+ level: String&lt;/p&gt;&lt;p style=&quot;margin: 0px 0px 0px 4px ; font-size: 13px&quot;&gt;+ content: Array[chapter]&lt;/p&gt;&lt;p style=&quot;margin: 0px 0px 0px 4px ; font-size: 13px&quot;&gt;+ author: String&lt;/p&gt;&lt;p style=&quot;margin: 0px 0px 0px 4px ; font-size: 13px&quot;&gt;+ released: Date&lt;br&gt;+ lastUpdate: Date&lt;/p&gt;&lt;hr style=&quot;font-size: 13px&quot;&gt;&lt;p style=&quot;margin: 0px 0px 0px 4px&quot;&gt;+ updateName(): String&lt;br&gt;+ updateDescription(): String&lt;br&gt;+ updateLevek(): String&lt;br&gt;+ updateLastUpdate(): String&lt;br&gt;+ createCourse(): String&lt;br&gt;+ createChapter(): String&lt;br&gt;+ updateChapter(): String&lt;br&gt;+ deleteChapter(): String&lt;/p&gt;&lt;p style=&quot;margin: 0px 0px 0px 4px&quot;&gt;+ resume(): String&lt;/p&gt;" style="verticalAlign=top;align=left;overflow=fill;fontSize=13;fontFamily=Helvetica;html=1;fontStyle=0;strokeWidth=2;" parent="1" vertex="1">
                    <mxGeometry x="503" y="173" width="195.5" height="327" as="geometry"/>
                </mxCell>
                <mxCell id="15" value="&lt;p style=&quot;margin: 4px 0px 0px ; text-align: center ; font-size: 13px&quot;&gt;&lt;span style=&quot;font-size: 13px&quot;&gt;&lt;b&gt;Course_Category&lt;/b&gt;&lt;/span&gt;&lt;/p&gt;&lt;hr style=&quot;font-size: 13px&quot;&gt;&lt;p style=&quot;margin: 0px 0px 0px 4px ; font-size: 13px&quot;&gt;+ category_id: uuid&lt;br style=&quot;font-size: 13px&quot;&gt;+ name: String&lt;/p&gt;&lt;p style=&quot;margin: 0px 0px 0px 4px ; font-size: 13px&quot;&gt;+ description: String&lt;/p&gt;&lt;p style=&quot;margin: 0px 0px 0px 4px ; font-size: 13px&quot;&gt;+ lernpath: lernpath&lt;/p&gt;&lt;p style=&quot;margin: 0px 0px 0px 4px ; font-size: 13px&quot;&gt;+ skills: String&lt;/p&gt;&lt;hr style=&quot;font-size: 13px&quot;&gt;&lt;p style=&quot;margin: 0px 0px 0px 4px ; font-size: 13px&quot;&gt;+ method(): Type&lt;/p&gt;" style="verticalAlign=top;align=left;overflow=fill;fontSize=13;fontFamily=Helvetica;html=1;fontStyle=0;strokeWidth=2;" parent="1" vertex="1">
                    <mxGeometry x="869" y="173" width="195.5" height="149" as="geometry"/>
                </mxCell>
                <mxCell id="16" value="" style="edgeStyle=entityRelationEdgeStyle;fontSize=12;html=1;endArrow=ERmany;startArrow=ERmany;entryX=0.5;entryY=1;entryDx=0;entryDy=0;exitX=1;exitY=0.5;exitDx=0;exitDy=0;strokeWidth=2;" parent="1" source="11" target="15" edge="1">
                    <mxGeometry width="100" height="100" relative="1" as="geometry">
                        <mxPoint x="838" y="441" as="sourcePoint"/>
                        <mxPoint x="938" y="341" as="targetPoint"/>
                    </mxGeometry>
                </mxCell>
                <mxCell id="17" value="backend-models" style="text;html=1;strokeColor=none;fillColor=none;align=center;verticalAlign=middle;whiteSpace=wrap;rounded=0;fontStyle=1;fontSize=32;" parent="1" vertex="1">
                    <mxGeometry x="436" y="24" width="353" height="65" as="geometry"/>
                </mxCell>
                <mxCell id="18" value="" style="edgeStyle=entityRelationEdgeStyle;fontSize=12;html=1;endArrow=ERoneToMany;entryX=1;entryY=0.5;entryDx=0;entryDy=0;exitX=0;exitY=0.5;exitDx=0;exitDy=0;strokeWidth=2;" parent="1" source="11" target="2" edge="1">
                    <mxGeometry width="100" height="100" relative="1" as="geometry">
                        <mxPoint x="419" y="373" as="sourcePoint"/>
                        <mxPoint x="519" y="273" as="targetPoint"/>
                    </mxGeometry>
                </mxCell>
                <mxCell id="20" value="&lt;p style=&quot;margin: 4px 0px 0px ; text-align: center ; font-size: 13px&quot;&gt;&lt;b&gt;Chapter&lt;/b&gt;&lt;/p&gt;&lt;hr style=&quot;font-size: 13px&quot;&gt;&lt;p style=&quot;margin: 0px 0px 0px 4px ; font-size: 13px&quot;&gt;+ chapter_id: uuid&lt;br&gt;+ name: String&lt;br&gt;+ description: String&lt;br&gt;+ content: Array[subchapter]&lt;br&gt;&lt;/p&gt;&lt;hr style=&quot;font-size: 13px&quot;&gt;&lt;p style=&quot;margin: 0px 0px 0px 4px ; font-size: 13px&quot;&gt;+ updateName(): String&lt;br&gt;+ updateDescription(): String&lt;br&gt;+ createSubChapter(): String&lt;br&gt;+ updateSubChapter(): String&lt;br&gt;+ deleteSubChapter(): String&lt;/p&gt;&lt;p style=&quot;margin: 0px 0px 0px 4px ; font-size: 13px&quot;&gt;+ resume(): String&lt;/p&gt;" style="verticalAlign=top;align=left;overflow=fill;fontSize=13;fontFamily=Helvetica;html=1;fontStyle=0;strokeWidth=2;" vertex="1" parent="1">
                    <mxGeometry x="869" y="462" width="195.5" height="209" as="geometry"/>
                </mxCell>
                <mxCell id="21" value="&lt;p style=&quot;margin: 4px 0px 0px ; text-align: center ; font-size: 13px&quot;&gt;&lt;b&gt;Subchapter&lt;/b&gt;&lt;/p&gt;&lt;hr style=&quot;font-size: 13px&quot;&gt;&lt;p style=&quot;margin: 0px 0px 0px 4px ; font-size: 13px&quot;&gt;+ subchapter_id: uuid&lt;br&gt;+ content: String&lt;br&gt;+ Listing: Array[]&lt;/p&gt;&lt;hr style=&quot;font-size: 13px&quot;&gt;&lt;p style=&quot;margin: 0px 0px 0px 4px&quot;&gt;+ updateContent(): String&lt;br&gt;+ updateListing(): Array[]&lt;br&gt;+ deleteListing(): String&lt;/p&gt;&lt;p style=&quot;margin: 0px 0px 0px 4px&quot;&gt;+ resume(): String&lt;/p&gt;" style="verticalAlign=top;align=left;overflow=fill;fontSize=13;fontFamily=Helvetica;html=1;fontStyle=0;strokeWidth=2;" vertex="1" parent="1">
                    <mxGeometry x="503" y="574" width="195.5" height="171" as="geometry"/>
                </mxCell>
                <mxCell id="23" value="" style="edgeStyle=entityRelationEdgeStyle;fontSize=12;html=1;endArrow=ERoneToMany;entryX=1;entryY=0.5;entryDx=0;entryDy=0;exitX=0;exitY=0.5;exitDx=0;exitDy=0;strokeWidth=2;" edge="1" parent="1" source="20" target="21">
                    <mxGeometry width="100" height="100" relative="1" as="geometry">
                        <mxPoint x="1025" y="751.5" as="sourcePoint"/>
                        <mxPoint x="825.9999999999998" y="716" as="targetPoint"/>
                    </mxGeometry>
                </mxCell>
                <mxCell id="25" value="" style="edgeStyle=entityRelationEdgeStyle;fontSize=12;html=1;endArrow=ERoneToMany;entryX=0.5;entryY=0;entryDx=0;entryDy=0;strokeWidth=2;" edge="1" parent="1" source="11" target="20">
                    <mxGeometry width="100" height="100" relative="1" as="geometry">
                        <mxPoint x="956" y="462.5" as="sourcePoint"/>
                        <mxPoint x="701.5" y="718.4999999999998" as="targetPoint"/>
                    </mxGeometry>
                </mxCell>
            </root>
        </mxGraphModel>
    </diagram>
</mxfile>